<?xml version="1.0" encoding="UTF-8"?>
<svg version="1.1" xmlns="http://www.w3.org/2000/svg" width="248" height="302">
<path d="M0 0 C0.33 0.66 0.66 1.32 1 2 C3.17769026 2.97558107 5.33205638 3.84962028 7.5625 4.6875 C13.22359461 6.87982024 18.81980152 9.17627485 24.375 11.625 C25.0462793 11.91987305 25.71755859 12.21474609 26.40917969 12.51855469 C29.24936399 13.77037613 32.08141925 15.03736738 34.90234375 16.33203125 C35.69769531 16.69683594 36.49304688 17.06164062 37.3125 17.4375 C37.96863281 17.74558594 38.62476563 18.05367187 39.30078125 18.37109375 C41.1669353 19.17355185 41.1669353 19.17355185 44 19 C45.00678306 19.99317062 46.00568338 20.99434874 47 22 C49.3605972 23.25066801 49.3605972 23.25066801 52.04296875 24.33984375 C53.03490234 24.76330078 54.02683594 25.18675781 55.04882812 25.62304688 C56.6024707 26.27370117 56.6024707 26.27370117 58.1875 26.9375 C64.25008046 29.50169858 70.26168438 32.06539433 76.12084961 35.06860352 C80.07643048 37.0291779 84.18318258 38.67413826 88.26367188 40.35546875 C92.36749767 42.10127337 95.62121035 44.00829499 99 47 C98.74863281 47.76570313 98.74863281 47.76570313 98.4921875 48.546875 C97.83415856 51.8265748 98.02354395 54.90871396 98.125 58.25 C98.19493924 64.16129304 98.04358137 68.82591167 95 74 C91.8125 75.5 91.8125 75.5 89 76 C89 75.34 89 74.68 89 74 C88.13375 73.87625 87.2675 73.7525 86.375 73.625 C83.08278918 73.01533133 80.11269516 72.23060041 77 71 C76.67 70.34 76.34 69.68 76 69 C74.0141315 68.29234843 72.01110885 67.63236511 70 67 C68.08359249 66.17082038 66.1800678 65.31136329 64.2890625 64.42578125 C62.6805542 63.67675537 62.6805542 63.67675537 61.03955078 62.91259766 C59.34934814 62.12054932 59.34934814 62.12054932 57.625 61.3125 C49.53779806 57.54654953 41.44068398 53.83371031 33.24194336 50.31738281 C28.16198199 48.11997546 23.24807327 45.65105112 18.35546875 43.06640625 C15.9754443 41.79378171 15.9754443 41.79378171 13 42 C11.97313635 41.02760551 10.97506044 40.02433253 10 39 C7.49287449 37.56200051 4.83714854 36.46316333 2.1875 35.3125 C1.48818359 34.99216797 0.78886719 34.67183594 0.06835938 34.34179688 C-4.12243478 32.50317905 -7.33273107 31.6116715 -12 32 C-12 31.34 -12 30.68 -12 30 C-25.28821641 31.25298318 -35.45947808 33.2886359 -46 42 C-47.010625 42.7425 -48.02125 43.485 -49.0625 44.25 C-60.22452424 53.8044501 -64.96758578 68.64344355 -66.25390625 82.79296875 C-66.89811051 98.19152857 -61.70322758 112.69733293 -51.625 124.25 C-50.10200001 125.85129684 -48.56129468 127.43601807 -47 129 C-46.38511719 129.62648437 -45.77023438 130.25296875 -45.13671875 130.8984375 C-32.60823986 142.75622695 -15.32920989 148.210015 0.52734375 154.03515625 C20.88883459 161.55252339 20.88883459 161.55252339 28 167 C28 167.66 28 168.32 28 169 C28.66 169 29.32 169 30 169 C35.30492595 175.39311588 37.31764586 182.18458462 36.9375 190.375 C35.9327146 198.88612335 32.28752458 205.26752462 26 211 C9.9437815 222.66118757 -7.47622765 226.24239446 -27 226 C-27 226.99 -27 227.98 -27 229 C-27.66 229 -28.32 229 -29 229 C-29.33 228.01 -29.66 227.02 -30 226 C-30.66 226.33 -31.32 226.66 -32 227 C-31.81584568 229.94091587 -31.81584568 229.94091587 -31 233 C-29.24503201 234.09514196 -29.24503201 234.09514196 -27 235 C-25.69869141 235.69416016 -25.69869141 235.69416016 -24.37109375 236.40234375 C-10.97713351 243.41143346 2.74560207 246.65155972 17.73046875 243.12109375 C23.99875421 240.89449293 29.073187 237.90017785 34.09765625 233.55078125 C36 232 36 232 38.18359375 230.98046875 C40.35500312 230.07602006 40.35500312 230.07602006 41 227 C41.66 227 42.32 227 43 227 C43.28230469 226.41476563 43.56460938 225.82953125 43.85546875 225.2265625 C44.90750467 223.17993973 46.05521735 221.29983011 47.3125 219.375 C48.21528367 217.92095904 49.11083511 216.46240872 50 215 C50.43957031 214.28070313 50.87914062 213.56140625 51.33203125 212.8203125 C59.20354996 198.69438466 59.32985971 182.28185782 55 167 C54.34 166.67 53.68 166.34 53 166 C52.566875 164.88625 52.566875 164.88625 52.125 163.75 C50.86342615 160.66615281 49.08699244 158.57395734 47 156 C47 155.34 47 154.68 47 154 C45.68 153.67 44.36 153.34 43 153 C43 152.34 43 151.68 43 151 C42.42121094 150.7215625 41.84242188 150.443125 41.24609375 150.15625 C39.08934113 149.04599126 37.09563504 147.82053127 35.0625 146.5 C31.17155364 144.04103762 27.35957748 142.45319249 23 141 C22.60039062 140.55785156 22.20078125 140.11570313 21.7890625 139.66015625 C19.07034162 137.13732574 15.73570946 135.90623111 12.375 134.4375 C5.13392326 131.26784652 5.13392326 131.26784652 4 129 C2.00969496 128.30492424 0.00691098 127.64556392 -2 127 C-10.57713346 123.37516551 -19.44384322 119.48509025 -27 114 C-27.81855469 113.42894531 -28.63710937 112.85789062 -29.48046875 112.26953125 C-37.41968254 106.3942785 -43.19148125 99.24206929 -44.875 89.28125 C-45.3363397 80.86180045 -42.2984214 74.37772947 -37 68 C-30.60097128 60.96106841 -21.18480464 56.31729962 -11.65625 55.8046875 C2.27089755 56.82874247 14.92807944 65.25033249 26.67578125 72.16796875 C30.06375201 74.03513477 33.42412944 75.53611383 37 77 C37 77.66 37 78.32 37 79 C38.24716797 79.37511719 38.24716797 79.37511719 39.51953125 79.7578125 C43.44509327 81.15885484 46.99841014 82.95346035 50.6875 84.875 C63.58104065 91.4422638 75.56764692 95.14082954 90.0625 95.625 C91.02349609 95.66367188 91.98449219 95.70234375 92.97460938 95.7421875 C95.31622814 95.83538626 97.65786037 95.92119185 100 96 C99.83628906 96.93827637 99.67257813 97.87655273 99.50390625 98.84326172 C98.81010454 103.72908803 98.89452932 108.58250647 98.9375 113.5078125 C98.94128662 114.51029022 98.94507324 115.51276794 98.94897461 116.54562378 C98.965192 120.80488249 98.99319691 125.0640424 99.02050781 129.32324219 C99.19490259 159.10803408 99.19490259 159.10803408 97 167 C97.66 167.33 98.32 167.66 99 168 C98.34 168 97.68 168 97 168 C96.938125 169.155 96.87625 170.31 96.8125 171.5 C94.18328423 194.23916338 81.43078006 214.89249741 66.62963867 231.68847656 C64.79869959 233.77774861 63.16265911 235.6462006 61.99609375 238.18359375 C60.57356784 240.77761158 58.54589839 241.54731853 56 243 C54.32126904 244.4630891 52.67763308 245.96699233 51.0625 247.5 C46.13687807 252.0637395 41.00844405 256.24355828 35.68383789 260.33203125 C30.62136234 264.03573899 30.62136234 264.03573899 27 269 C26.43023437 269.12503906 25.86046875 269.25007813 25.2734375 269.37890625 C22.13430045 270.23650555 20.18757819 271.94009316 17.625 273.9375 C16.55960124 274.75522058 15.49315104 275.57157263 14.42578125 276.38671875 C13.86842285 276.81388184 13.31106445 277.24104492 12.73681641 277.68115234 C5.38989742 283.26001886 -2.02967623 288.79746068 -10.23046875 293.0625 C-12.25330322 294.09619265 -12.25330322 294.09619265 -15 296 C-15.37125 295.566875 -15.7425 295.13375 -16.125 294.6875 C-19.3657207 291.77085137 -22.61899946 290 -27 290 C-27 289.34 -27 288.68 -27 288 C-28.44113842 286.92614956 -29.93221033 285.91940515 -31.4375 284.9375 C-37.13139583 280.91173772 -42.01116848 276.30238698 -46.9375 271.375 C-48.03759399 270.28239868 -48.03759399 270.28239868 -49.15991211 269.16772461 C-52.95992318 265.31951785 -56.12138337 261.56989018 -59 257 C-61.03317007 255.26574227 -61.03317007 255.26574227 -63 254 C-63.66 253.34 -64.32 252.68 -65 252 C-64.34 251.67 -63.68 251.34 -63 251 C-63.48650276 249.25657066 -63.48650276 249.25657066 -63.98283386 247.47792053 C-65.00014197 243.39017516 -65.25953529 239.57801972 -65.2746582 235.35327148 C-65.27976913 234.6349263 -65.28488007 233.91658112 -65.29014587 233.1764679 C-65.30393224 230.82458931 -65.30309228 228.47300772 -65.30078125 226.12109375 C-65.30467649 224.46452224 -65.30901284 222.80795172 -65.31376648 221.15138245 C-65.32120695 217.68414064 -65.32095493 214.21700067 -65.31567383 210.74975586 C-65.30990694 206.34799969 -65.32675312 201.94666812 -65.3500185 197.54498196 C-65.3648967 194.12245829 -65.3656082 190.70003328 -65.36250877 187.27748299 C-65.36301577 185.65708646 -65.368134 184.03668348 -65.37832069 182.41631889 C-65.43663145 171.83759694 -64.35001836 162.3190764 -62 152 C-61.4748754 148.95051648 -61.1575475 146.09843416 -61 143 C-62.87424716 140.719279 -62.87424716 140.719279 -65.875 140.625 C-69.0733401 140.73474715 -69.0733401 140.73474715 -71.3125 142.8125 C-74.21447098 146.57431423 -74.18761591 149.88357714 -74.25 154.5 C-74.28867188 156.21703125 -74.28867188 156.21703125 -74.328125 157.96875 C-73.95457706 161.41962143 -73.41793241 161.76049008 -71 164 C-69.51479684 170.25978244 -69.64120577 176.0409409 -72 182 C-72.66 182.99 -73.32 183.98 -74 185 C-78.22703482 184.44401164 -80.85684559 183.02497374 -84.3125 180.5625 C-85.19550781 179.94503906 -86.07851562 179.32757813 -86.98828125 178.69140625 C-87.65214844 178.13324219 -88.31601563 177.57507813 -89 177 C-89 176.34 -89 175.68 -89 175 C-89.66 175 -90.32 175 -91 175 C-91.82022612 172.64828157 -92.6312654 170.2940149 -93.4375 167.9375 C-93.78264648 166.95233398 -93.78264648 166.95233398 -94.13476562 165.94726562 C-99.11428815 151.29736604 -97.34579838 134.76382891 -93.46850586 119.97241211 C-92.38077711 115.39306842 -92.44584249 111.37081068 -94.1875 107.0625 C-95.86020289 104.83732329 -95.86020289 104.83732329 -98.4375 104.0625 C-101.30114362 103.99265503 -102.64549957 104.40230328 -105 106 C-106.52846661 109.05693322 -106.23242445 111.62984547 -106 115 C-105.51418457 115.63462158 -105.02836914 116.26924316 -104.52783203 116.9230957 C-99.13967837 124.247644 -102.00468423 139.37693802 -102.21484375 147.99804688 C-102.33994374 158.70546905 -101.77591564 170.24270086 -95.5 179.3125 C-94.9121875 180.19550781 -94.324375 181.07851562 -93.71875 181.98828125 C-92.07600734 184.26125765 -92.07600734 184.26125765 -89 185 C-86.74925318 187.11834995 -84.89673866 189.5646244 -83 192 C-82.23429687 192.97646484 -82.23429687 192.97646484 -81.453125 193.97265625 C-74.88196143 203.03341014 -70.88036028 214.4190106 -70.8671875 225.6328125 C-70.86525391 227.21255859 -70.86525391 227.21255859 -70.86328125 228.82421875 C-70.86714844 229.91347656 -70.87101562 231.00273437 -70.875 232.125 C-70.86919922 233.77048828 -70.86919922 233.77048828 -70.86328125 235.44921875 C-70.86457031 236.49980469 -70.86585937 237.55039063 -70.8671875 238.6328125 C-70.86831543 239.59074707 -70.86944336 240.54868164 -70.87060547 241.53564453 C-71 244 -71 244 -72 247 C-73.65 247 -75.3 247 -77 247 C-77 246.34 -77 245.68 -77 245 C-77.66 245 -78.32 245 -79 245 C-80.68933922 243.3563186 -82.35259924 241.6857124 -84 240 C-84.928125 239.278125 -85.85625 238.55625 -86.8125 237.8125 C-87.534375 237.214375 -88.25625 236.61625 -89 236 C-89 235.34 -89 234.68 -89 234 C-89.66 234 -90.32 234 -91 234 C-91 233.34 -91 232.68 -91 232 C-91.86625 231.62875 -91.86625 231.62875 -92.75 231.25 C-95.32939979 229.81700012 -97.06121592 228.21575324 -99 226 C-99 225.34 -99 224.68 -99 224 C-99.99 223.67 -100.98 223.34 -102 223 C-103.38671875 221.44140625 -103.38671875 221.44140625 -104.6875 219.5625 C-105.12449219 218.94503906 -105.56148437 218.32757813 -106.01171875 217.69140625 C-107 216 -107 216 -107 214 C-107.66 214 -108.32 214 -109 214 C-126.19322141 190.20616256 -131.78531656 164.51998175 -130.97265625 135.546875 C-130.87141831 132.8757036 -130.87141831 132.8757036 -132 130 C-131.76449935 128.38513841 -131.52501671 126.7707191 -131.26171875 125.16015625 C-130.60031078 119.70107259 -130.64279475 114.10354203 -131.5625 108.6875 C-132 106 -132 106 -131.52685547 103.53198242 C-130.7919986 98.60558101 -130.93756502 93.77289046 -131.0078125 88.80078125 C-131.02531694 86.60091598 -131.04222634 84.4010459 -131.05859375 82.20117188 C-131.08964767 78.74457522 -131.1253236 75.28821824 -131.17138672 71.83178711 C-131.21358898 68.48808735 -131.23711821 65.14467374 -131.2578125 61.80078125 C-131.27643341 60.76327225 -131.29505432 59.72576324 -131.3142395 58.65681458 C-131.31769379 57.69539047 -131.32114807 56.73396637 -131.32470703 55.7434082 C-131.33438507 54.89768753 -131.34406311 54.05196686 -131.35403442 53.18061829 C-130.91230553 50.45985996 -130.15568634 49.67040371 -128 48 C-125.45204376 46.69860899 -122.91839756 45.4846318 -120.3125 44.3125 C-118.76621968 43.60049262 -117.22066241 42.88691315 -115.67578125 42.171875 C-114.89283691 41.81029297 -114.10989258 41.44871094 -113.30322266 41.07617188 C-109.84162709 39.45875474 -106.41646344 37.77286754 -103 36.0625 C-102.34531738 35.73475586 -101.69063477 35.40701172 -101.01611328 35.06933594 C-96.19974352 32.64053808 -91.44162093 30.11043146 -86.6875 27.5625 C-79.89953957 23.92880209 -73.00789104 20.57437252 -66.03393555 17.3137207 C-60.81408619 14.87101313 -55.64479825 12.34675721 -50.5 9.75 C-49.19033691 9.09588796 -47.88044941 8.442225 -46.5703125 7.7890625 C-44.38993696 6.6964892 -42.21617612 5.59041564 -40.0546875 4.4609375 C-27.17145112 -1.96190046 -13.93418233 -1.16908106 0 0 Z M-37.375 179 C-39.827713 182.0187237 -39.93745849 184.12242624 -40 188 C-39.34505701 190.27157441 -38.53447372 192.4499927 -37.70703125 194.6640625 C-36.34238464 199.17267394 -36.52412492 203.79499106 -37.51171875 208.37109375 C-38.0747236 211.40231188 -38.09635551 214.23164854 -38.0625 217.3125 C-38.05347656 218.38113281 -38.04445313 219.44976562 -38.03515625 220.55078125 C-38.02355469 221.35902344 -38.01195313 222.16726562 -38 223 C-37.67 222.01 -37.34 221.02 -37 220 C-36.29875 219.773125 -35.5975 219.54625 -34.875 219.3125 C-29.61463198 216.91102764 -26.13560676 212.67365662 -23.88671875 207.37890625 C-21.70993952 200.10578135 -20.44496421 192.29961415 -23.3125 185.0625 C-25.13042409 181.51417998 -25.13042409 181.51417998 -28 179 C-31.58701629 178.08694131 -33.91616747 177.54364946 -37.375 179 Z M-37 223 C-36.67 224.32 -36.34 225.64 -36 227 C-35.34 226.67 -34.68 226.34 -34 226 C-34.99 225.01 -35.98 224.02 -37 223 Z " fill="#2C8EE5" transform="translate(141,6)"/>
<path d="M0 0 C0.33 0 0.66 0 1 0 C1.02578125 0.969375 1.0515625 1.93875 1.078125 2.9375 C1.82523259 22.77957812 6.64275608 38.61804482 21 53 C21.61488281 53.62648437 22.22976562 54.25296875 22.86328125 54.8984375 C35.39176014 66.75622695 52.67079011 72.210015 68.52734375 78.03515625 C88.88883459 85.55252339 88.88883459 85.55252339 96 91 C96 91.66 96 92.32 96 93 C96.66 93 97.32 93 98 93 C103.30492595 99.39311588 105.31764586 106.18458462 104.9375 114.375 C103.9327146 122.88612335 100.28752458 129.26752462 94 135 C77.9437815 146.66118757 60.52377235 150.24239446 41 150 C41 150.99 41 151.98 41 153 C40.34 153 39.68 153 39 153 C38.67 152.01 38.34 151.02 38 150 C37.34 150.33 36.68 150.66 36 151 C36.18415432 153.94091587 36.18415432 153.94091587 37 157 C38.75496799 158.09514196 38.75496799 158.09514196 41 159 C42.30130859 159.69416016 42.30130859 159.69416016 43.62890625 160.40234375 C57.02286649 167.41143346 70.74560207 170.65155972 85.73046875 167.12109375 C91.99875421 164.89449293 97.073187 161.90017785 102.09765625 157.55078125 C104 156 104 156 106.18359375 154.98046875 C108.35500312 154.07602006 108.35500312 154.07602006 109 151 C109.66 151 110.32 151 111 151 C111.42345703 150.12214844 111.42345703 150.12214844 111.85546875 149.2265625 C112.90750467 147.17993973 114.05521735 145.29983011 115.3125 143.375 C116.21528367 141.92095904 117.11083511 140.46240872 118 139 C118.43957031 138.28070313 118.87914062 137.56140625 119.33203125 136.8203125 C127.20354996 122.69438466 127.32985971 106.28185782 123 91 C122.34 90.67 121.68 90.34 121 90 C120.71125 89.2575 120.4225 88.515 120.125 87.75 C118.86342615 84.66615281 117.08699244 82.57395734 115 80 C115 79.34 115 78.68 115 78 C113.02 77.505 113.02 77.505 111 77 C111 76.34 111 75.68 111 75 C110.44828125 74.74476563 109.8965625 74.48953125 109.328125 74.2265625 C106.63362942 72.80697926 104.23221272 71.13867746 101.75 69.375 C100.41195312 68.42753906 100.41195312 68.42753906 99.046875 67.4609375 C98.37140625 66.97882813 97.6959375 66.49671875 97 66 C100.78532429 66 102.22424665 67.19553617 105.375 69.25 C106.31085938 69.85328125 107.24671875 70.4565625 108.2109375 71.078125 C119.24398143 78.6807267 123.55035764 87.3039391 127.62109375 99.92578125 C130.6095717 116.28538737 126.05118005 132.38139674 117 146 C108.35460359 157.40791546 95.52344672 168.349736 81 171 C64.62270399 172.16029623 50.30750691 169.14168231 37 159 C32.43741642 154.77941587 28.29884119 150.37470302 27.859375 143.94140625 C27.7877017 140.39955055 27.98946058 137.07245853 28.5 133.5625 C29.49064516 126.50415323 29.34584209 120.74429601 27 114 C26.43116141 109.91248839 26.58447694 106.78118336 28.5625 103.0625 C31.77244958 100.34638882 33.82044153 100 38 100 C42.63974673 102.003527 44.83009686 104.84491528 47.1875 109.1875 C49.72688183 117.97766786 47.16127926 126.67724936 44 135 C41.42439264 139.24668594 38.61033658 142.59023767 35 146 C50.22049017 150.87684956 69.73711255 145.59475679 83.3984375 138.80859375 C91.52092844 134.5044831 98.68183508 129.1586099 101.62109375 120.08203125 C103.16097303 111.62063273 102.13139503 104.36659956 97.83984375 97.01171875 C89.23965858 85.20079779 70.33011064 81.13775104 57.23754883 76.76416016 C44.56837442 72.4401178 33.50804979 66.27468753 23 58 C22.21882813 57.40832031 21.43765625 56.81664062 20.6328125 56.20703125 C9.61491863 47.26690629 2.43507627 33.89463469 0 20 C-0.07649781 18.38038502 -0.10811681 16.75810555 -0.09765625 15.13671875 C-0.09443359 14.25048828 -0.09121094 13.36425781 -0.08789062 12.45117188 C-0.07951172 11.53916016 -0.07113281 10.62714844 -0.0625 9.6875 C-0.05798828 8.75615234 -0.05347656 7.82480469 -0.04882812 6.86523438 C-0.03709234 4.57675627 -0.02067363 2.28841192 0 0 Z M30.625 103 C28.172287 106.0187237 28.06254151 108.12242624 28 112 C28.65494299 114.27157441 29.46552628 116.4499927 30.29296875 118.6640625 C31.65761536 123.17267394 31.47587508 127.79499106 30.48828125 132.37109375 C29.9252764 135.40231188 29.90364449 138.23164854 29.9375 141.3125 C29.94652344 142.38113281 29.95554687 143.44976562 29.96484375 144.55078125 C29.97644531 145.35902344 29.98804687 146.16726562 30 147 C30.33 146.01 30.66 145.02 31 144 C31.70125 143.773125 32.4025 143.54625 33.125 143.3125 C38.38536802 140.91102764 41.86439324 136.67365662 44.11328125 131.37890625 C46.29006048 124.10578135 47.55503579 116.29961415 44.6875 109.0625 C42.86957591 105.51417998 42.86957591 105.51417998 40 103 C36.41298371 102.08694131 34.08383253 101.54364946 30.625 103 Z M31 147 C31.33 148.32 31.66 149.64 32 151 C32.66 150.67 33.32 150.34 34 150 C33.01 149.01 32.02 148.02 31 147 Z " fill="#1C456A" transform="translate(73,82)"/>
<path d="M0 0 C3.49982069 0.60395308 6.54254959 1.51986557 9.80078125 2.92578125 C10.69603516 3.31056641 11.59128906 3.69535156 12.51367188 4.09179688 C13.8990918 4.69604492 13.8990918 4.69604492 15.3125 5.3125 C16.22451172 5.70373047 17.13652344 6.09496094 18.07617188 6.49804688 C22.82199844 8.54946868 27.47562332 10.70789806 32.08129883 13.05541992 C36.05494553 15.01165342 40.16986929 16.66865263 44.26367188 18.35546875 C48.36749767 20.10127337 51.62121035 22.00829499 55 25 C54.74863281 25.76570313 54.74863281 25.76570313 54.4921875 26.546875 C53.83415856 29.8265748 54.02354395 32.90871396 54.125 36.25 C54.19493924 42.16129304 54.04358137 46.82591167 51 52 C47.8125 53.5 47.8125 53.5 45 54 C45 53.34 45 52.68 45 52 C44.13375 51.87625 43.2675 51.7525 42.375 51.625 C39.08278918 51.01533133 36.11269516 50.23060041 33 49 C32.67 48.34 32.34 47.68 32 47 C30.0141315 46.29234843 28.01110885 45.63236511 26 45 C24.08359249 44.17082038 22.1800678 43.31136329 20.2890625 42.42578125 C18.6805542 41.67675537 18.6805542 41.67675537 17.03955078 40.91259766 C15.34934814 40.12054932 15.34934814 40.12054932 13.625 39.3125 C5.53779806 35.54654953 -2.55931602 31.83371031 -10.75805664 28.31738281 C-15.83801801 26.11997546 -20.75192673 23.65105112 -25.64453125 21.06640625 C-28.0245557 19.79378171 -28.0245557 19.79378171 -31 20 C-32.02686365 19.02760551 -33.02493956 18.02433253 -34 17 C-36.50712551 15.56200051 -39.16285146 14.46316333 -41.8125 13.3125 C-42.86147461 12.83200195 -42.86147461 12.83200195 -43.93164062 12.34179688 C-48.12243478 10.50317905 -51.33273107 9.6116715 -56 10 C-56 9.34 -56 8.68 -56 8 C-69.34436832 9.25827791 -79.37206967 11.36216021 -90 20 C-91.49567155 21.13074825 -92.99557756 22.25592085 -94.5 23.375 C-95.50546875 24.12910156 -95.50546875 24.12910156 -96.53125 24.8984375 C-97.0159375 25.26195313 -97.500625 25.62546875 -98 26 C-95.10479101 18.67878185 -86.17754016 12.91468943 -79.16015625 9.7734375 C-65.87594554 5.01706549 -54.67850686 4.59039991 -41.65625 10.5234375 C-39.04182346 11.8270615 -36.45242965 13.17792894 -33.859375 14.5234375 C-13.29834032 25.13362544 8.16992424 34.16505442 29.3346405 43.49386597 C33.02199386 45.11950134 36.69438496 46.77394253 40.359375 48.44921875 C43.63073777 49.84270697 45.5150304 50.4496735 49 50 C50.83069903 46.87070822 51.23931181 44.62356854 51.1953125 41.015625 C51.18886719 40.08105469 51.18242187 39.14648438 51.17578125 38.18359375 C51.15902344 37.21550781 51.14226562 36.24742188 51.125 35.25 C51.11597656 34.26644531 51.10695312 33.28289063 51.09765625 32.26953125 C51.07412785 29.84610593 51.04125368 27.42317778 51 25 C46.1010629 22.69144335 41.20102225 20.38525418 36.29980469 18.08154297 C34.87045614 17.40935464 33.44137039 16.73660683 32.01269531 16.06298828 C30.19681591 15.20684863 28.37966889 14.35339927 26.5625 13.5 C25.67461792 13.08282715 25.67461792 13.08282715 24.76879883 12.65722656 C21.23247746 11.00691189 17.67587797 9.4129986 14.09765625 7.85546875 C13.27128662 7.49453125 12.44491699 7.13359375 11.59350586 6.76171875 C9.97317626 6.05660054 8.35035077 5.35718471 6.72485352 4.6640625 C1.11032586 2.22065172 1.11032586 2.22065172 0 0 Z " fill="#1C456C" transform="translate(185,28)"/>
<path d="M0 0 C0.33 0 0.66 0 1 0 C1.02578125 0.969375 1.0515625 1.93875 1.078125 2.9375 C1.82523259 22.77957812 6.64275608 38.61804482 21 53 C21.61488281 53.62648437 22.22976562 54.25296875 22.86328125 54.8984375 C35.39176014 66.75622695 52.67079011 72.210015 68.52734375 78.03515625 C88.88883459 85.55252339 88.88883459 85.55252339 96 91 C96 91.66 96 92.32 96 93 C96.66 93 97.32 93 98 93 C103.30492595 99.39311588 105.31764586 106.18458462 104.9375 114.375 C103.93356285 122.87893817 100.29214813 129.27904111 94 135 C85.57235314 141.00218351 75.69329817 147.45828421 65 147 C67.25840962 144.74159038 68.27672072 144.55281279 71.3125 143.8125 C83.0003751 140.47068375 93.62443986 134.41636852 100.01953125 123.96484375 C103.14874115 117.69395698 103.06503673 109.40394815 100.9375 102.8125 C95.79056551 91.48001196 86.02910409 87.29153212 75 83 C69.10648968 80.84324449 63.19002217 78.75259325 57.23754883 76.76416016 C44.56837442 72.4401178 33.50804979 66.27468753 23 58 C22.21882813 57.40832031 21.43765625 56.81664062 20.6328125 56.20703125 C9.61491863 47.26690629 2.43507627 33.89463469 0 20 C-0.07649781 18.38038502 -0.10811681 16.75810555 -0.09765625 15.13671875 C-0.09443359 14.25048828 -0.09121094 13.36425781 -0.08789062 12.45117188 C-0.07951172 11.53916016 -0.07113281 10.62714844 -0.0625 9.6875 C-0.05798828 8.75615234 -0.05347656 7.82480469 -0.04882812 6.86523438 C-0.03709234 4.57675627 -0.02067363 2.28841192 0 0 Z " fill="#1C4369" transform="translate(73,82)"/>
<path d="M0 0 C0.89203125 0.00902344 1.7840625 0.01804687 2.703125 0.02734375 C3.37859375 0.03894531 4.0540625 0.05054688 4.75 0.0625 C4.75 0.3925 4.75 0.7225 4.75 1.0625 C3.56083984 1.17851563 3.56083984 1.17851563 2.34765625 1.296875 C-16.45139597 4.03883621 -33.38222099 14.9485191 -49.93359375 23.7734375 C-61.87368142 30.13056318 -74.08986617 35.93768216 -86.29541016 41.76318359 C-87.30909668 42.2473877 -88.3227832 42.7315918 -89.3671875 43.23046875 C-90.26034668 43.65610107 -91.15350586 44.0817334 -92.07373047 44.52026367 C-96.48491855 46.66211418 -100.86401287 48.86950643 -105.25 51.0625 C-105.58 72.1825 -105.91 93.3025 -106.25 115.0625 C-108.78521042 111.25968436 -109.64418788 108.11087632 -108.76904297 103.56323242 C-108.04039129 98.648775 -108.18774309 93.82278662 -108.2578125 88.86328125 C-108.27531694 86.66341598 -108.29222634 84.4635459 -108.30859375 82.26367188 C-108.33964767 78.80707522 -108.3753236 75.35071824 -108.42138672 71.89428711 C-108.46358898 68.55058735 -108.48711821 65.20717374 -108.5078125 61.86328125 C-108.52643341 60.82577225 -108.54505432 59.78826324 -108.5642395 58.71931458 C-108.56769379 57.75789047 -108.57114807 56.79646637 -108.57470703 55.8059082 C-108.58438507 54.96018753 -108.59406311 54.11446686 -108.60403442 53.24311829 C-108.16230553 50.52235996 -107.40568634 49.73290371 -105.25 48.0625 C-102.70204376 46.76110899 -100.16839756 45.5471318 -97.5625 44.375 C-96.01621968 43.66299262 -94.47066241 42.94941315 -92.92578125 42.234375 C-92.14283691 41.87279297 -91.35989258 41.51121094 -90.55322266 41.13867188 C-87.09162709 39.52125474 -83.66646344 37.83536754 -80.25 36.125 C-79.59531738 35.79725586 -78.94063477 35.46951172 -78.26611328 35.13183594 C-73.44974352 32.70303808 -68.69162093 30.17293146 -63.9375 27.625 C-57.14953957 23.99130209 -50.25789104 20.63687252 -43.28393555 17.3762207 C-38.06415131 14.93354361 -32.89376549 12.41123427 -27.75 9.8125 C-8.0658218 -0.10612923 -8.0658218 -0.10612923 0 0 Z " fill="#1B446A" transform="translate(118.25,5.9375)"/>
<path d="M0 0 C2.375 2 2.375 2 4 4 C2.7625 3.62875 1.525 3.2575 0.25 2.875 C-2.51424904 2.18026838 -3.66864202 1.8980437 -6.4375 2.75 C-8.14186865 3.93452216 -8.14186865 3.93452216 -9 6 C-9.50381499 10.77989229 -9.50381499 10.77989229 -7.52783203 14.9230957 C-2.13967837 22.247644 -5.00468423 37.37693802 -5.21484375 45.99804688 C-5.33994374 56.70546905 -4.77591564 68.24270086 1.5 77.3125 C2.0878125 78.19550781 2.675625 79.07851562 3.28125 79.98828125 C4.92399266 82.26125765 4.92399266 82.26125765 8 83 C10.25074682 85.11834995 12.10326134 87.5646244 14 90 C14.51046875 90.65097656 15.0209375 91.30195313 15.546875 91.97265625 C22.11803857 101.03341014 26.11963972 112.4190106 26.1328125 123.6328125 C26.13474609 125.21255859 26.13474609 125.21255859 26.13671875 126.82421875 C26.13285156 127.91347656 26.12898438 129.00273437 26.125 130.125 C26.13080078 131.77048828 26.13080078 131.77048828 26.13671875 133.44921875 C26.13542969 134.49980469 26.13414063 135.55039063 26.1328125 136.6328125 C26.13168457 137.59074707 26.13055664 138.54868164 26.12939453 139.53564453 C26 142 26 142 25 145 C23.35 145 21.7 145 20 145 C20 144.34 20 143.68 20 143 C19.34 143 18.68 143 18 143 C17.34 141.68 16.68 140.36 16 139 C18.66666667 140.33333333 21.33333333 141.66666667 24 143 C24.37020381 121.33890786 24.37020381 121.33890786 18 101 C17.59007813 100.12214844 17.18015625 99.24429688 16.7578125 98.33984375 C13.60961765 92.31356543 9.29634492 88.37075035 4.26367188 83.96411133 C0.09714851 80.25666738 -2.18432723 77.19528266 -4 72 C-4.2578125 71.32428955 -4.515625 70.6485791 -4.78125 69.95239258 C-8.29553444 59.28983394 -7.44234038 47.88641147 -7.43579102 36.79272461 C-7.43936335 33.99034912 -7.46668355 31.18892441 -7.49609375 28.38671875 C-7.48791122 27.53349533 -7.4797287 26.68027191 -7.47129822 25.80119324 C-7.53940626 20.33850429 -8.5195312 17.42121618 -12 13 C-12.87105559 9.87211857 -12.53401499 8.36429447 -12 5 C-8.37997938 0.86283358 -5.53457848 -1.08285231 0 0 Z " fill="#1D4568" transform="translate(44,108)"/>
<path d="M0 0 C7.71314677 2.79601571 14.5389181 7.91479445 20 14 C20.825 14.825 21.65 15.65 22.5 16.5 C30.89353999 26.64662113 31.74872645 40.49151454 31 53 C29.10021954 69.60408126 19.88975079 83.64387723 7.3046875 94.27734375 C-1.82020829 101.25749908 -11.15912642 106.17840874 -22.75 106.0625 C-23.92046875 106.05347656 -25.0909375 106.04445313 -26.296875 106.03515625 C-27.63492188 106.01775391 -27.63492188 106.01775391 -29 106 C-29 105.67 -29 105.34 -29 105 C-27.88882813 104.82984375 -26.77765625 104.6596875 -25.6328125 104.484375 C-13.83363464 102.59926783 -4.34790466 100.4784877 4.9921875 92.5859375 C7 91 7 91 9.1953125 89.9765625 C11.35538437 89.07361527 11.35538437 89.07361527 12 86 C12.66 86 13.32 86 14 86 C14.42345703 85.12214844 14.42345703 85.12214844 14.85546875 84.2265625 C15.90750467 82.17993973 17.05521735 80.29983011 18.3125 78.375 C19.21528367 76.92095904 20.11083511 75.46240872 21 74 C21.43957031 73.28070313 21.87914062 72.56140625 22.33203125 71.8203125 C30.20354996 57.69438466 30.32985971 41.28185782 26 26 C25.34 25.67 24.68 25.34 24 25 C23.71125 24.2575 23.4225 23.515 23.125 22.75 C21.86342615 19.66615281 20.08699244 17.57395734 18 15 C18 14.34 18 13.68 18 13 C16.68 12.67 15.36 12.34 14 12 C14 11.34 14 10.68 14 10 C13.17242187 9.61521484 13.17242187 9.61521484 12.328125 9.22265625 C9.64532938 7.81373842 7.23182032 6.17549991 4.75 4.4375 C3.85796875 3.81746094 2.9659375 3.19742188 2.046875 2.55859375 C1.37140625 2.04425781 0.6959375 1.52992188 0 1 C0 0.67 0 0.34 0 0 Z " fill="#194366" transform="translate(170,147)"/>
<path d="M0 0 C3.06385439 2.87816624 5.66770001 5.81980523 8.1875 9.1875 C16.79314601 20.36558643 30.29506297 34.15095338 44 39 C48.54113469 39.43791656 50.99168527 38.84874834 54.75 36.3125 C55.68585938 35.6834375 56.62171875 35.054375 57.5859375 34.40625 C58.72630459 33.607506 59.86405005 32.80501354 61 32 C61.71961914 31.49082031 62.43923828 30.98164063 63.18066406 30.45703125 C73.7679113 22.96421407 73.7679113 22.96421407 84 15 C84.99 15.495 84.99 15.495 86 16 C80.73541742 20.95490125 75.15319995 25.01279069 69.09375 28.9453125 C66.04221682 30.97196206 63.11757309 33.11494519 60.1875 35.3125 C56.22119098 38.24137849 52.58462505 40.24418615 48 42 C47.34 42.66 46.68 43.32 46 44 C45.62875 43.566875 45.2575 43.13375 44.875 42.6875 C41.6342793 39.77085137 38.38100054 38 34 38 C34 37.34 34 36.68 34 36 C32.55886158 34.92614956 31.06778967 33.91940515 29.5625 32.9375 C23.86860417 28.91173772 18.98883152 24.30238698 14.0625 19.375 C12.96240601 18.28239868 12.96240601 18.28239868 11.84008789 17.16772461 C8.03805657 13.31747198 4.90633023 9.55208349 2 5 C1.34 4.67 0.68 4.34 0 4 C0 2.68 0 1.36 0 0 Z " fill="#1A4361" transform="translate(80,258)"/>
<path d="M0 0 C0.33 0 0.66 0 1 0 C0.46893127 5.56387119 -0.59302929 10.46150086 -2.625 15.6875 C-3.02477051 16.72559814 -3.02477051 16.72559814 -3.43261719 17.78466797 C-9.76276756 33.78649409 -19.29481717 47.54660986 -31.1640625 59.890625 C-33.21884149 61.78536 -33.21884149 61.78536 -33 64 C-34.65694668 65.01602435 -36.32577949 66.01269889 -38 67 C-39.67873096 68.4630891 -41.32236692 69.96699233 -42.9375 71.5 C-47.86312193 76.0637395 -52.99155595 80.24355828 -58.31616211 84.33203125 C-61.03402022 86.42429839 -63.66784097 88.47627076 -66 91 C-66.66 90.34 -67.32 89.68 -68 89 C-66.39583333 87.6875 -64.79166667 86.375 -63.1875 85.0625 C-62.17558594 84.23234375 -61.16367188 83.4021875 -60.12109375 82.546875 C-58.207298 80.98002468 -56.28368076 79.43032049 -54.34765625 77.890625 C-42.445415 68.368832 -31.14309968 58.24689221 -22 46 C-21.40058594 45.22785156 -20.80117187 44.45570313 -20.18359375 43.66015625 C-11.76639538 32.34307299 -6.35227885 19.32674533 -2 6 C-1.33333333 4 -0.66666667 2 0 0 Z " fill="#194363" transform="translate(235,182)"/>
<path d="M0 0 C3.5149153 0.67306889 4.71363628 1.82543696 6.9375 4.5625 C6.6075 5.2225 6.2775 5.8825 5.9375 6.5625 C5.56625 6.0675 5.195 5.5725 4.8125 5.0625 C2.94681202 3.31223954 2.94681202 3.31223954 0 3.125 C-3.72677799 3.65739686 -4.79372317 4.621493 -7.0625 7.5625 C-8.17471955 10.89915865 -8.26503779 13.55029662 -8.3125 17.0625 C-8.33828125 18.2071875 -8.3640625 19.351875 -8.390625 20.53125 C-8.01707706 23.98212143 -7.48043241 24.32299008 -5.0625 26.5625 C-3.57729684 32.82228244 -3.70370577 38.6034409 -6.0625 44.5625 C-6.7225 45.5525 -7.3825 46.5425 -8.0625 47.5625 C-12.28953482 47.00651164 -14.91934559 45.58747374 -18.375 43.125 C-19.25800781 42.50753906 -20.14101563 41.89007813 -21.05078125 41.25390625 C-21.71464844 40.69574219 -22.37851562 40.13757813 -23.0625 39.5625 C-23.0625 38.9025 -23.0625 38.2425 -23.0625 37.5625 C-23.7225 37.5625 -24.3825 37.5625 -25.0625 37.5625 C-29.65475513 26.22537016 -29.65475513 26.22537016 -29.0625 19.5625 C-28.7325 19.5625 -28.4025 19.5625 -28.0625 19.5625 C-27.90394531 20.26375 -27.74539062 20.965 -27.58203125 21.6875 C-25.0791218 31.86507654 -22.02328674 37.86122973 -13.05078125 43.53125 C-11.13990072 44.71597299 -11.13990072 44.71597299 -9.0625 44.5625 C-7.09264394 39.51474385 -5.69409455 34.69793335 -7.9609375 29.50390625 C-8.32445313 28.78074219 -8.68796875 28.05757812 -9.0625 27.3125 C-11.58006769 22.07130036 -11.79286461 17.28962739 -11.0625 11.5625 C-9.13242894 6.07703487 -6.0046776 1.10289997 0 0 Z " fill="#1F4771" transform="translate(75.0625,143.4375)"/>
<path d="M0 0 C9.33836051 1.55912873 17.54477159 7.39772868 25.60546875 12.1328125 C29.01919044 14.01055584 32.39871571 15.52653934 36 17 C36 17.66 36 18.32 36 19 C36.83144531 19.25007813 37.66289062 19.50015625 38.51953125 19.7578125 C42.44524637 21.15890948 45.99794644 22.95416138 49.6875 24.875 C60.92145228 30.57327027 71.63078077 33.79657633 84 36 C84 36.33 84 36.66 84 37 C69.23724913 38.22455998 56.63098816 31.77736244 44 25 C43.02385742 24.48050781 42.04771484 23.96101563 41.04199219 23.42578125 C27.27965162 16.09816282 13.59941775 8.62551331 0 1 C0 0.67 0 0.34 0 0 Z " fill="#1A4267" transform="translate(142,66)"/>
<path d="M0 0 C3.49982069 0.60395308 6.54254959 1.51986557 9.80078125 2.92578125 C11.14366211 3.50295898 11.14366211 3.50295898 12.51367188 4.09179688 C13.43728516 4.49462891 14.36089844 4.89746094 15.3125 5.3125 C16.22451172 5.70373047 17.13652344 6.09496094 18.07617188 6.49804688 C22.82199844 8.54946868 27.47562332 10.70789806 32.08129883 13.05541992 C36.05494553 15.01165342 40.16986929 16.66865263 44.26367188 18.35546875 C48.36749767 20.10127337 51.62121035 22.00829499 55 25 C54.83242187 25.51046875 54.66484375 26.0209375 54.4921875 26.546875 C53.83415856 29.8265748 54.02354395 32.90871396 54.125 36.25 C54.19493924 42.16129304 54.04358137 46.82591167 51 52 C47.8125 53.5 47.8125 53.5 45 54 C45 53.34 45 52.68 45 52 C45.804375 51.525625 46.60875 51.05125 47.4375 50.5625 C50.2918076 49.20016328 50.2918076 49.20016328 51 46 C51.08143855 44.37280518 51.1075302 42.74248281 51.09765625 41.11328125 C51.09443359 40.17548828 51.09121094 39.23769531 51.08789062 38.27148438 C51.07951172 37.29501953 51.07113281 36.31855469 51.0625 35.3125 C51.05798828 34.32443359 51.05347656 33.33636719 51.04882812 32.31835938 C51.03704303 29.87884526 51.02059011 27.43945311 51 25 C46.1010629 22.69144335 41.20102225 20.38525418 36.29980469 18.08154297 C34.87045614 17.40935464 33.44137039 16.73660683 32.01269531 16.06298828 C30.19681591 15.20684863 28.37966889 14.35339927 26.5625 13.5 C25.97057861 13.22188477 25.37865723 12.94376953 24.76879883 12.65722656 C21.23247746 11.00691189 17.67587797 9.4129986 14.09765625 7.85546875 C13.27128662 7.49453125 12.44491699 7.13359375 11.59350586 6.76171875 C9.97317626 6.05660054 8.35035077 5.35718471 6.72485352 4.6640625 C1.11032586 2.22065172 1.11032586 2.22065172 0 0 Z " fill="#1B456B" transform="translate(185,28)"/>
<path d="M0 0 C0.33 0 0.66 0 1 0 C1.01458252 1.0422876 1.02916504 2.0845752 1.04418945 3.15844727 C1.1030515 7.10065625 1.18026027 11.04234511 1.26245117 14.98413086 C1.29529407 16.67610099 1.32344596 18.36817004 1.34643555 20.06030273 C1.69785045 45.26497613 7.943055 67.46780227 23 88 C23 88.66 23 89.32 23 90 C22.34 90 21.68 90 21 90 C3.80677859 66.20616256 -1.78531656 40.51998175 -0.97265625 11.546875 C-0.87141831 8.8757036 -0.87141831 8.8757036 -2 6 C-1.0625 2.8125 -1.0625 2.8125 0 0 Z " fill="#1B4164" transform="translate(11,130)"/>
<path d="M0 0 C1.10271149 1.65406724 2.19314725 3.31740122 3.2265625 5.015625 C12.03455268 19.08872663 26.21848491 25.26792259 40.75927734 32.07495117 C50.00020431 36.41724305 59.00695621 41.16945076 68 46 C64.54251127 47.15249624 64.15867385 46.9065289 61.0234375 45.41796875 C60.270625 45.06283203 59.5178125 44.70769531 58.7421875 44.34179688 C57.96101563 43.96087891 57.17984375 43.57996094 56.375 43.1875 C55.58609375 42.81818359 54.7971875 42.44886719 53.984375 42.06835938 C48.13454175 39.2690835 48.13454175 39.2690835 47 37 C45.00969496 36.30492424 43.00691098 35.64556392 41 35 C32.42286654 31.37516551 23.55615678 27.48509025 16 22 C15.18144531 21.42894531 14.36289063 20.85789062 13.51953125 20.26953125 C7.46102899 15.7860606 2.94306267 11.0346376 0 4 C0 2.68 0 1.36 0 0 Z " fill="#173C5A" transform="translate(98,98)"/>
<path d="M0 0 C2.375 2 2.375 2 4 4 C2.7625 3.62875 1.525 3.2575 0.25 2.875 C-2.51424904 2.18026838 -3.66864202 1.8980437 -6.4375 2.75 C-8.14186865 3.93452216 -8.14186865 3.93452216 -9 6 C-9.50381499 10.77989229 -9.50381499 10.77989229 -7.52783203 14.9230957 C-2.13967837 22.247644 -5.00468423 37.37693802 -5.21484375 45.99804688 C-5.31973762 54.97600867 -5.11938129 65.07998243 -0.83642578 73.20825195 C0 75 0 75 -1 78 C-1.63381508 76.67083439 -2.25648484 75.33635391 -2.875 74 C-3.22304688 73.2575 -3.57109375 72.515 -3.9296875 71.75 C-6.62119294 64.83459917 -7.28196225 58.5833792 -7.2734375 51.2421875 C-7.29371196 49.38150424 -7.31456245 47.52082719 -7.3359375 45.66015625 C-7.35857413 42.75922344 -7.37503306 39.85853681 -7.38085938 36.95751953 C-7.39039228 34.13530324 -7.42415549 31.31416198 -7.4609375 28.4921875 C-7.45589203 27.62955292 -7.45084656 26.76691833 -7.44564819 25.87814331 C-7.53498628 20.39121125 -8.50023201 17.43909413 -12 13 C-12.87105559 9.87211857 -12.53401499 8.36429447 -12 5 C-8.37997938 0.86283358 -5.53457848 -1.08285231 0 0 Z " fill="#133350" transform="translate(44,108)"/>
<path d="M0 0 C0.33 0 0.66 0 1 0 C1.02578125 0.969375 1.0515625 1.93875 1.078125 2.9375 C1.82483361 22.76898185 6.63428897 38.63428897 21 53 C21.63808594 53.63808594 22.27617188 54.27617187 22.93359375 54.93359375 C27.68298158 59.36701399 32.95416986 62.43560919 38.65625 65.51953125 C39.4296875 66.00808594 40.203125 66.49664062 41 67 C41 67.66 41 68.32 41 69 C31.9051963 65.6345943 24.51179458 60.08028459 18 53 C17.175 52.236875 16.35 51.47375 15.5 50.6875 C6.52003749 41.0340403 -0.1844664 28.59229165 -0.09765625 15.13671875 C-0.09443359 14.25048828 -0.09121094 13.36425781 -0.08789062 12.45117188 C-0.07951172 11.53916016 -0.07113281 10.62714844 -0.0625 9.6875 C-0.05798828 8.75615234 -0.05347656 7.82480469 -0.04882812 6.86523438 C-0.03709234 4.57675627 -0.02067363 2.28841192 0 0 Z " fill="#183D5F" transform="translate(73,82)"/>
<path d="M0 0 C0 0.33 0 0.66 0 1 C-1.26714844 0.95359375 -2.53429687 0.9071875 -3.83984375 0.859375 C-16.50353934 0.31996981 -16.50353934 0.31996981 -28 5 C-29.0725 5.61875 -30.145 6.2375 -31.25 6.875 C-37.69229403 11.8531363 -41.1290921 17.5631672 -42.40234375 25.51171875 C-42.65015828 27.67415514 -42.85422975 29.82852598 -43 32 C-45.49864949 27.86397793 -44.94180812 25.22324977 -43.88671875 20.66015625 C-41.07988758 12.23966274 -35.0520917 5.71752455 -27.3203125 1.55859375 C-17.21214275 -3.2489504 -10.52781202 -3.15834361 0 0 Z " fill="#1E4B72" transform="translate(141,65)"/>
<path d="M0 0 C0.33 0.99 0.66 1.98 1 3 C-0.65 4.65 -2.3 6.3 -4 8 C-0.01156429 9.31901024 4.03812674 9.14935237 8.1875 9.125 C9.32554077 9.1242749 9.32554077 9.1242749 10.48657227 9.12353516 C14.51862591 9.0984833 18.43627553 8.92418767 22.4375 8.375 C24.2009375 8.189375 24.2009375 8.189375 26 8 C26.66 8.66 27.32 9.32 28 10 C25.16724047 10.33896268 22.33395339 10.67129694 19.5 11 C18.31277344 11.14308594 18.31277344 11.14308594 17.1015625 11.2890625 C12.02970596 11.87107882 7.10506141 12.09367085 2 12 C2 12.99 2 13.98 2 15 C1.34 15 0.68 15 0 15 C-0.33 14.01 -0.66 13.02 -1 12 C-2.175625 12.0928125 -2.175625 12.0928125 -3.375 12.1875 C-4.674375 12.0946875 -4.674375 12.0946875 -6 12 C-8 9 -8 9 -8 6 C-6.04690112 4.59886384 -4.04291182 3.26660533 -2 2 C-1.34 1.34 -0.68 0.68 0 0 Z " fill="#235B81" transform="translate(112,220)"/>
<path d="M0 0 C9.33836051 1.55912873 17.54477159 7.39772868 25.60546875 12.1328125 C29.01919044 14.01055584 32.39871571 15.52653934 36 17 C36 17.66 36 18.32 36 19 C36.66 19.33 37.32 19.66 38 20 C33.60807122 19.3984788 30.14016249 17.68278249 26.3125 15.5625 C25.67691162 15.21703125 25.04132324 14.8715625 24.38647461 14.515625 C22.25294268 13.35211391 20.12598224 12.17724647 18 11 C17.18982422 10.55253418 16.37964844 10.10506836 15.54492188 9.64404297 C10.35580843 6.77600594 5.17527021 3.89293455 0 1 C0 0.67 0 0.34 0 0 Z " fill="#1D4B73" transform="translate(142,66)"/>
<path d="M0 0 C3.45925163 1.2491742 6.14693203 2.67527795 9 5 C8.74863281 5.76570313 8.74863281 5.76570313 8.4921875 6.546875 C7.83415856 9.8265748 8.02354395 12.90871396 8.125 16.25 C8.19493924 22.16129304 8.04358137 26.82591167 5 32 C1.8125 33.5 1.8125 33.5 -1 34 C-1 33.34 -1 32.68 -1 32 C-0.195625 31.525625 0.60875 31.05125 1.4375 30.5625 C4.2918076 29.20016328 4.2918076 29.20016328 5 26 C5.08143855 24.37280518 5.1075302 22.74248281 5.09765625 21.11328125 C5.09443359 20.17548828 5.09121094 19.23769531 5.08789062 18.27148438 C5.07951172 17.29501953 5.07113281 16.31855469 5.0625 15.3125 C5.05573242 13.83040039 5.05573242 13.83040039 5.04882812 12.31835938 C5.03704303 9.87884526 5.02059011 7.43945311 5 5 C3.02 4.01 1.04 3.02 -1 2 C-0.67 1.34 -0.34 0.68 0 0 Z " fill="#205A81" transform="translate(231,48)"/>
<path d="M0 0 C8.66666667 8.66666667 17.33333333 17.33333333 26 26 C22.06830895 26 20.83572772 24.60580385 18 22 C18 21.34 18 20.68 18 20 C17.34 20 16.68 20 16 20 C16 19.34 16 18.68 16 18 C15.4225 17.7525 14.845 17.505 14.25 17.25 C11.67060021 15.81700012 9.93878408 14.21575324 8 12 C8 11.34 8 10.68 8 10 C7.01 9.67 6.02 9.34 5 9 C3.61328125 7.44140625 3.61328125 7.44140625 2.3125 5.5625 C1.65701172 4.63630859 1.65701172 4.63630859 0.98828125 3.69140625 C0 2 0 2 0 0 Z " fill="#19466A" transform="translate(34,220)"/>
<path d="M0 0 C0.66 0.33 1.32 0.66 2 1 C-5.33981201 8.49503462 -15.50820854 14.77379857 -26.234375 15.09765625 C-27.39453125 15.08605469 -28.5546875 15.07445312 -29.75 15.0625 C-30.92046875 15.05347656 -32.0909375 15.04445312 -33.296875 15.03515625 C-34.18890625 15.02355469 -35.0809375 15.01195312 -36 15 C-36 14.67 -36 14.34 -36 14 C-34.33324219 13.74476563 -34.33324219 13.74476563 -32.6328125 13.484375 C-19.70853962 11.41951592 -10.12598187 8.70736605 0 0 Z " fill="#174061" transform="translate(177,238)"/>
<path d="M0 0 C-2.7939868 1.86265786 -4.39710277 2.45738047 -7.5625 3.25 C-17.38434915 6.11946465 -24.68339656 12.03685566 -32 19 C-32 16 -32 16 -30.1640625 13.9140625 C-21.66146751 6.2486461 -11.91850391 -0.56754781 0 0 Z " fill="#1A3D5E" transform="translate(120,35)"/>
<path d="M0 0 C0.33 0 0.66 0 1 0 C1 13.53 1 27.06 1 41 C-2.42760875 35.85858688 -1.97732228 31.86393365 -1 26 C-0.97477303 24.16684024 -0.97811827 22.33320274 -1 20.5 C-1.06902076 13.63243418 -0.56667904 6.84062554 0 0 Z " fill="#143E63" transform="translate(11,80)"/>
<path d="M0 0 C1.10271149 1.65406724 2.19314725 3.31740122 3.2265625 5.015625 C8.57411204 13.55975443 15.3351223 18.99925941 24 24 C23.34 24.33 22.68 24.66 22 25 C11.95367816 20.88735094 4.45876059 13.89746857 0 4 C0 2.68 0 1.36 0 0 Z " fill="#163B5A" transform="translate(98,98)"/>
<path d="M0 0 C0.66 0.33 1.32 0.66 2 1 C-2.96388211 6.31844512 -8.3557713 10.76115649 -14.11181641 15.17895508 C-16.90590995 17.32763832 -19.54724616 19.4701963 -22 22 C-22.66 21.34 -23.32 20.68 -24 20 C-22.39583333 18.6875 -20.79166667 17.375 -19.1875 16.0625 C-18.19234375 15.2478125 -17.1971875 14.433125 -16.171875 13.59375 C-14.08054477 11.88242662 -11.98667868 10.17428417 -9.890625 8.46875 C-8.91609375 7.6746875 -7.9415625 6.880625 -6.9375 6.0625 C-6.03902344 5.33160156 -5.14054687 4.60070312 -4.21484375 3.84765625 C-1.97793575 2.03794752 -1.97793575 2.03794752 0 0 Z " fill="#183654" transform="translate(191,251)"/>
<path d="M0 0 C0.33 0 0.66 0 1 0 C1 11.88 1 23.76 1 36 C0.67 36 0.34 36 0 36 C-0.62978445 27.76781755 -1.11807953 19.65213829 -0.9375 11.390625 C-0.88773423 8.85125391 -0.88773423 8.85125391 -2 6 C-1.0625 2.8125 -1.0625 2.8125 0 0 Z " fill="#103C5B" transform="translate(11,130)"/>
<path d="M0 0 C0.33 0 0.66 0 1 0 C1 8.25 1 16.5 1 25 C-3 22 -3 22 -3.390625 19.95703125 C-3.26041667 17.97135417 -3.13020833 15.98567708 -3 14 C-2.01 14 -1.02 14 0 14 C0 9.38 0 4.76 0 0 Z " fill="#2883CC" transform="translate(13,107)"/>
<path d="M0 0 C0.99 0.495 0.99 0.495 2 1 C2.33 1.99 2.66 2.98 3 4 C5.01508358 4.73323796 5.01508358 4.73323796 7 5 C7.0825 5.94875 7.165 6.8975 7.25 7.875 C7.63960014 11.08330183 7.63960014 11.08330183 9.9375 12.25 C10.618125 12.4975 11.29875 12.745 12 13 C12.66 13.66 13.32 14.32 14 15 C9.64923824 15 7.99447463 12.71739879 4.875 9.87890625 C1.75483001 6.7522359 0 4.45943226 0 0 Z " fill="#205A7D" transform="translate(102,228)"/>
<path d="M0 0 C0.5775 0.78375 1.155 1.5675 1.75 2.375 C3.71691817 5.02121697 3.71691817 5.02121697 5.9453125 5.94921875 C8.28078459 7.14359516 9.4675116 8.41987669 11.125 10.4375 C11.62257813 11.03433594 12.12015625 11.63117188 12.6328125 12.24609375 C13.82665495 13.77762306 14.9228468 15.3842702 16 17 C13 17 13 17 11.640625 15.6796875 C11.18171875 15.08414063 10.7228125 14.48859375 10.25 13.875 C7.58002643 10.55430423 4.72079451 8.01107293 1.3203125 5.45703125 C0 4 0 4 0 0 Z " fill="#1D4A75" transform="translate(44,184)"/>
<path d="M0 0 C3.1875 -0.375 3.1875 -0.375 7 0 C11.19206672 3.81943857 13.05113401 7.30680403 14 13 C13.03515625 15.2109375 13.03515625 15.2109375 12 17 C11.79503906 16.24074219 11.59007813 15.48148438 11.37890625 14.69921875 C11.10949219 13.70535156 10.84007813 12.71148437 10.5625 11.6875 C10.29566406 10.70136719 10.02882813 9.71523437 9.75390625 8.69921875 C9.21920575 6.78482474 8.62855462 4.88566385 8 3 C6.12612784 2.19787372 6.12612784 2.19787372 3.9375 1.8125 C3.20402344 1.65394531 2.47054687 1.49539062 1.71484375 1.33203125 C1.14894531 1.22246094 0.58304687 1.11289063 0 1 C0 0.67 0 0.34 0 0 Z " fill="#1E5C84" transform="translate(107,183)"/>
<path d="M0 0 C0.33 0.99 0.66 1.98 1 3 C-0.65 4.65 -2.3 6.3 -4 8 C-2.68 8.66 -1.36 9.32 0 10 C-0.99 10 -1.98 10 -3 10 C-3.33 10.66 -3.66 11.32 -4 12 C-4.66 12 -5.32 12 -6 12 C-8 9 -8 9 -8 6 C-6.04690112 4.59886384 -4.04291182 3.26660533 -2 2 C-1.34 1.34 -0.68 0.68 0 0 Z " fill="#29679D" transform="translate(112,220)"/>
<path d="M0 0 C0.33 0 0.66 0 1 0 C1.15855469 0.68964844 1.31710938 1.37929687 1.48046875 2.08984375 C3.12430009 8.71057881 5.38724012 14.21672826 9 20 C8.01 20 7.02 20 6 20 C6 19.34 6 18.68 6 18 C5.34 18 4.68 18 4 18 C-0.59225513 6.66287016 -0.59225513 6.66287016 0 0 Z " fill="#1A496E" transform="translate(46,163)"/>
<path d="M0 0 C0.33 0 0.66 0 1 0 C1.433125 1.6396875 1.433125 1.6396875 1.875 3.3125 C2.81893204 7.04013845 2.81893204 7.04013845 5 10 C5.4140625 12.69921875 5.4140625 12.69921875 5.625 15.6875 C5.69976562 16.68136719 5.77453125 17.67523438 5.8515625 18.69921875 C5.90054688 19.45847656 5.94953125 20.21773437 6 21 C5.34 21 4.68 21 4 21 C3.96132813 20.14728516 3.96132813 20.14728516 3.921875 19.27734375 C3.61103685 15.04570623 3.18853579 11.86390246 0.875 8.25 C-1 5 -1 5 -0.75 2.0625 C-0.5025 1.381875 -0.255 0.70125 0 0 Z " fill="#1C4F75" transform="translate(33,115)"/>
<path d="M0 0 C1.7726041 0.61996001 3.54302667 1.24615993 5.3125 1.875 C6.79169922 2.39707031 6.79169922 2.39707031 8.30078125 2.9296875 C11 4 11 4 14 6 C14 6.66 14 7.32 14 8 C8.80355921 6.40109514 3.93387858 4.25861997 -1 2 C-0.67 1.34 -0.34 0.68 0 0 Z " fill="#1E4B78" transform="translate(136,36)"/>
<path d="M0 0 C0.33 0 0.66 0 1 0 C1.03738281 0.61488281 1.07476562 1.22976562 1.11328125 1.86328125 C1.17902344 2.67152344 1.24476562 3.47976562 1.3125 4.3125 C1.37050781 5.11300781 1.42851563 5.91351563 1.48828125 6.73828125 C2.08914571 9.39401042 3.07729318 10.16088912 5 12 C4.6875 14.6875 4.6875 14.6875 4 17 C0.77533922 12.79392072 -0.12460635 10.71614641 -0.0625 5.375 C-0.05347656 4.37210938 -0.04445313 3.36921875 -0.03515625 2.3359375 C-0.02355469 1.56507813 -0.01195313 0.79421875 0 0 Z " fill="#27659F" transform="translate(65,158)"/>
<path d="M0 0 C0 3 0 3 -1.96875 5.04296875 C-2.8040625 5.75066406 -3.639375 6.45835937 -4.5 7.1875 C-5.3353125 7.90292969 -6.170625 8.61835938 -7.03125 9.35546875 C-7.6809375 9.89816406 -8.330625 10.44085938 -9 11 C-9.66 10.67 -10.32 10.34 -11 10 C-5.555 5.05 -5.555 5.05 0 0 Z " fill="#329AEF" transform="translate(184,234)"/>
<path d="M0 0 C0.33 0.66 0.66 1.32 1 2 C-0.09346881 3.34212062 -1.2001575 4.67347975 -2.3125 6 C-3.23482422 7.11375 -3.23482422 7.11375 -4.17578125 8.25 C-6 10 -6 10 -9 10 C-8.67 9.34 -8.34 8.68 -8 8 C-7.34 8 -6.68 8 -6 8 C-5.67 7.01 -5.34 6.02 -5 5 C-4.34 5 -3.68 5 -3 5 C-2.690625 4.360625 -2.38125 3.72125 -2.0625 3.0625 C-1 1 -1 1 0 0 Z " fill="#1F5980" transform="translate(187,228)"/>
<path d="M0 0 C3.3 1.65 6.6 3.3 10 5 C10 5.66 10 6.32 10 7 C6.2089881 5.55049545 2.6125362 3.84827434 -1 2 C-0.67 1.34 -0.34 0.68 0 0 Z " fill="#1F4F79" transform="translate(122,122)"/>
<path d="M0 0 C3.45925163 1.2491742 6.14693203 2.67527795 9 5 C8.01 5.99 7.02 6.98 6 8 C5.67 7.01 5.34 6.02 5 5 C1.99992729 3.29144978 1.99992729 3.29144978 -1 2 C-0.67 1.34 -0.34 0.68 0 0 Z " fill="#2A5486" transform="translate(231,48)"/>
<path d="M0 0 C0.66 0.33 1.32 0.66 2 1 C-0.97 3.97 -3.94 6.94 -7 10 C-7 7 -7 7 -4.625 4.4375 C-3.75875 3.633125 -2.8925 2.82875 -2 2 C-1.34 1.34 -0.68 0.68 0 0 Z " fill="#319DF0" transform="translate(111,70)"/>
<path d="M0 0 C0 0.66 0 1.32 0 2 C-1.28913487 2.67154933 -2.58140204 3.33708859 -3.875 4 C-4.59429687 4.37125 -5.31359375 4.7425 -6.0546875 5.125 C-8 6 -8 6 -10 6 C-10 5.34 -10 4.68 -10 4 C-8.71086513 3.32845067 -7.41859796 2.66291141 -6.125 2 C-5.40570313 1.62875 -4.68640625 1.2575 -3.9453125 0.875 C-2 0 -2 0 0 0 Z " fill="#1A5177" transform="translate(68,28)"/>
<path d="M0 0 C4.40114397 0.50298788 6.71195019 2.08772731 10 5 C9.67 5.66 9.34 6.32 9 7 C7.4972763 6.02501855 5.99788037 5.04490611 4.5 4.0625 C3.6646875 3.51722656 2.829375 2.97195313 1.96875 2.41015625 C1.3190625 1.94480469 0.669375 1.47945313 0 1 C0 0.67 0 0.34 0 0 Z " fill="#21476D" transform="translate(105,287)"/>
<path d="M0 0 C0.66 0.33 1.32 0.66 2 1 C0.50260417 2.23697917 -0.99479167 3.47395833 -2.4921875 4.7109375 C-3.71051161 5.75250992 -4.86660097 6.86660097 -6 8 C-6.66 7.34 -7.32 6.68 -8 6 C-5.36 4.02 -2.72 2.04 0 0 Z " fill="#16506F" transform="translate(175,265)"/>
<path d="M0 0 C0.33 0 0.66 0 1 0 C1 2.97 1 5.94 1 9 C0.67 9 0.34 9 0 9 C-0.87890625 2.84765625 -0.87890625 2.84765625 -1 1 C-0.67 0.67 -0.34 0.34 0 0 Z " fill="#3A9DDC" transform="translate(74,181)"/>
<path d="M0 0 C0.33 0 0.66 0 1 0 C1 2.97 1 5.94 1 9 C0.67 9 0.34 9 0 9 C0 6.03 0 3.06 0 0 Z " fill="#2CAAD2" transform="translate(74,213)"/>
<path d="M0 0 C0.33 0 0.66 0 1 0 C1 2.31 1 4.62 1 7 C0.67 7 0.34 7 0 7 C-0.38133299 5.0085944 -0.71325582 3.00720923 -1 1 C-0.67 0.67 -0.34 0.34 0 0 Z " fill="#1BADE3" transform="translate(74,229)"/>
<path d="M0 0 C0.33 0.66 0.66 1.32 1 2 C1.99 2.33 2.98 2.66 4 3 C2.35 3 0.7 3 -1 3 C-0.67 2.01 -0.34 1.02 0 0 Z " fill="#1EE0FF" transform="translate(145,247)"/>
<path d="M0 0 C0.66 1.32 1.32 2.64 2 4 C1.01 4.495 1.01 4.495 0 5 C0 3.35 0 1.7 0 0 Z " fill="#2394E2" transform="translate(10,172)"/>
<path d="M0 0 C0.33 0 0.66 0 1 0 C1 1.65 1 3.3 1 5 C0.67 5 0.34 5 0 5 C0 3.35 0 1.7 0 0 Z " fill="#2EA9E1" transform="translate(74,173)"/>
<path d="M0 0 C0.33 0.99 0.66 1.98 1 3 C0.01 2.67 -0.98 2.34 -2 2 C-1.34 2 -0.68 2 0 2 C0 1.34 0 0.68 0 0 Z " fill="#2AD4FF" transform="translate(41,123)"/>
<path d="M0 0 C0.99 1.485 0.99 1.485 2 3 C1.34 3 0.68 3 0 3 C0 2.01 0 1.02 0 0 Z " fill="#2AD4FF" transform="translate(74,255)"/>
<path d="M0 0 C0.99 0.33 1.98 0.66 3 1 C2.01 1 1.02 1 0 1 C0 0.67 0 0.34 0 0 Z " fill="#3FBFFF" transform="translate(59,250)"/>
<path d="M0 0 C0.33 0.99 0.66 1.98 1 3 C0.34 2.67 -0.32 2.34 -1 2 C-0.67 1.34 -0.34 0.68 0 0 Z " fill="#1FDFFF" transform="translate(35,225)"/>
<path d="M0 0 C1 4 1 4 1 4 Z " fill="#15A9E9" transform="translate(74,203)"/>
<path d="M0 0 C0.99 1.485 0.99 1.485 2 3 C1.34 3 0.68 3 0 3 C0 2.01 0 1.02 0 0 Z " fill="#00DFFF" transform="translate(74,167)"/>
<path d="M0 0 C0 3 0 3 0 3 Z " fill="#00FFFF" transform="translate(113,63)"/>
<path d="M0 0 C0.99 0.495 0.99 0.495 2 1 C1.01 1.495 1.01 1.495 0 2 C0 1.34 0 0.68 0 0 Z " fill="#00FFFF" transform="translate(116,297)"/>
<path d="M0 0 C0.33 0.66 0.66 1.32 1 2 C0.34 1.67 -0.32 1.34 -1 1 C-0.67 0.67 -0.34 0.34 0 0 Z " fill="#318DE9" transform="translate(135,247)"/>
<path d="" fill="#00FFFF" transform="translate(0,0)"/>
<path d="M0 0 C0.99 0.495 0.99 0.495 2 1 C1.01 1.495 1.01 1.495 0 2 C0 1.34 0 0.68 0 0 Z " fill="#2AD4FF" transform="translate(111,218)"/>
<path d="" fill="#00D4FF" transform="translate(0,0)"/>
<path d="M0 0 C0.66 0 1.32 0 2 0 C1.67 0.66 1.34 1.32 1 2 C0.67 1.34 0.34 0.68 0 0 Z " fill="#00D4FF" transform="translate(58,189)"/>
<path d="M0 0 C0.66 0 1.32 0 2 0 C1.67 0.66 1.34 1.32 1 2 C0.67 1.34 0.34 0.68 0 0 Z " fill="#46B8FF" transform="translate(12,186)"/>
<path d="" fill="#54A9FF" transform="translate(0,0)"/>
<path d="M0 0 C0.66 0 1.32 0 2 0 C1.67 0.66 1.34 1.32 1 2 C0.67 1.34 0.34 0.68 0 0 Z " fill="#1CE2FF" transform="translate(206,94)"/>
<path d="M0 0 C0.33 0.66 0.66 1.32 1 2 C0.34 1.67 -0.32 1.34 -1 1 C-0.67 0.67 -0.34 0.34 0 0 Z " fill="#54A9FF" transform="translate(236,47)"/>
<path d="M0 0 C3 1 3 1 3 1 Z " fill="#2AD4FF" transform="translate(183,22)"/>
<path d="M0 0 C3 1 3 1 3 1 Z " fill="#38C6FF" transform="translate(166,17)"/>
<path d="M0 0 C0.99 0.495 0.99 0.495 2 1 C1.01 1.495 1.01 1.495 0 2 C0 1.34 0 0.68 0 0 Z " fill="#54A9FF" transform="translate(98,6)"/>
<path d="" fill="#2AD4D4" transform="translate(0,0)"/>
<path d="M0 0 C2 1 2 1 2 1 Z " fill="#00FFFF" transform="translate(156,282)"/>
<path d="M0 0 C2 1 2 1 2 1 Z " fill="#00FFFF" transform="translate(91,277)"/>
<path d="M0 0 C2 1 2 1 2 1 Z " fill="#00FFFF" transform="translate(164,276)"/>
<path d="" fill="#6A94FF" transform="translate(0,0)"/>
<path d="" fill="#00FFFF" transform="translate(0,0)"/>
<path d="M0 0 C2 1 2 1 2 1 Z " fill="#00BFFF" transform="translate(130,247)"/>
<path d="M0 0 C2 1 2 1 2 1 Z " fill="#007FFF" transform="translate(126,246)"/>
<path d="M0 0 C2 1 2 1 2 1 Z " fill="#3FBFFF" transform="translate(155,225)"/>
<path d="" fill="#00BFFF" transform="translate(0,0)"/>
<path d="M0 0 C2 1 2 1 2 1 Z " fill="#3FBFFF" transform="translate(26,221)"/>
<path d="" fill="#00FFFF" transform="translate(0,0)"/>
<path d="" fill="#1FBFDF" transform="translate(0,0)"/>
<path d="" fill="#3F7FFF" transform="translate(0,0)"/>
<path d="" fill="#5F7FDF" transform="translate(0,0)"/>
<path d="" fill="#7F7FFF" transform="translate(0,0)"/>
<path d="" fill="#2AD4FF" transform="translate(0,0)"/>
<path d="" fill="#00BFFF" transform="translate(0,0)"/>
<path d="" fill="#00FFFF" transform="translate(0,0)"/>
<path d="" fill="#4388CC" transform="translate(0,0)"/>
<path d="" fill="#55AAAA" transform="translate(0,0)"/>
<path d="" fill="#3FBFFF" transform="translate(0,0)"/>
<path d="M0 0 C2 1 2 1 2 1 Z " fill="#00FFFF" transform="translate(167,167)"/>
<path d="" fill="#2A94FF" transform="translate(0,0)"/>
<path d="" fill="#00BFFF" transform="translate(0,0)"/>
<path d="M0 0 C2 1 2 1 2 1 Z " fill="#2AD4FF" transform="translate(139,158)"/>
<path d="" fill="#6A94FF" transform="translate(0,0)"/>
<path d="M0 0 C2 1 2 1 2 1 Z " fill="#00FFFF" transform="translate(123,152)"/>
<path d="M0 0 C2 1 2 1 2 1 Z " fill="#007FFF" transform="translate(120,150)"/>
<path d="M0 0 C2 1 2 1 2 1 Z " fill="#19CCE5" transform="translate(71,148)"/>
<path d="M0 0 C2 1 2 1 2 1 Z " fill="#5F7FFF" transform="translate(76,147)"/>
<path d="" fill="#00FFFF" transform="translate(0,0)"/>
<path d="" fill="#00FFFF" transform="translate(0,0)"/>
<path d="" fill="#00BFFF" transform="translate(0,0)"/>
<path d="M0 0 C2 1 2 1 2 1 Z " fill="#00FFFF" transform="translate(43,126)"/>
<path d="M0 0 C2 1 2 1 2 1 Z " fill="#00FFFF" transform="translate(46,117)"/>
<path d="" fill="#3FBFFF" transform="translate(0,0)"/>
<path d="" fill="#007FFF" transform="translate(0,0)"/>
<path d="" fill="#00FFFF" transform="translate(0,0)"/>
<path d="M0 0 C2 1 2 1 2 1 Z " fill="#00FFFF" transform="translate(196,67)"/>
<path d="" fill="#00FFFF" transform="translate(0,0)"/>
<path d="M0 0 C2 1 2 1 2 1 Z " fill="#00FFFF" transform="translate(139,62)"/>
<path d="M0 0 C2 1 2 1 2 1 Z " fill="#6A94FF" transform="translate(140,41)"/>
<path d="M0 0 C2 1 2 1 2 1 Z " fill="#3FBFFF" transform="translate(202,33)"/>
<path d="M0 0 C2 1 2 1 2 1 Z " fill="#3D95D3" transform="translate(58,30)"/>
<path d="M0 0 C2 1 2 1 2 1 Z " fill="#00FFFF" transform="translate(167,15)"/>
<path d="M0 0 C2 1 2 1 2 1 Z " fill="#7F7FFF" transform="translate(86,14)"/>
<path d="" fill="#55AAAA" transform="translate(0,0)"/>
<path d="" fill="#00FFFF" transform="translate(0,0)"/>
<path d="" fill="#00FFFF" transform="translate(0,0)"/>
<path d="" fill="#7F7FFF" transform="translate(0,0)"/>
<path d="" fill="#00FFFF" transform="translate(0,0)"/>
<path d="" fill="#557FD4" transform="translate(0,0)"/>
<path d="" fill="#00FFFF" transform="translate(0,0)"/>
<path d="" fill="#3F7FBF" transform="translate(0,0)"/>
<path d="" fill="#7F7FFF" transform="translate(0,0)"/>
<path d="" fill="#00FFFF" transform="translate(0,0)"/>
<path d="" fill="#7F7FFF" transform="translate(0,0)"/>
<path d="" fill="#3399CC" transform="translate(0,0)"/>
<path d="" fill="#55AAFF" transform="translate(0,0)"/>
<path d="" fill="#00FFFF" transform="translate(0,0)"/>
<path d="" fill="#00FFFF" transform="translate(0,0)"/>
<path d="" fill="#007FFF" transform="translate(0,0)"/>
<path d="" fill="#7F7FFF" transform="translate(0,0)"/>
<path d="" fill="#7F7FFF" transform="translate(0,0)"/>
<path d="" fill="#00FFFF" transform="translate(0,0)"/>
<path d="" fill="#55AAAA" transform="translate(0,0)"/>
<path d="" fill="#00FFFF" transform="translate(0,0)"/>
<path d="" fill="#00FFFF" transform="translate(0,0)"/>
<path d="" fill="#7F7FFF" transform="translate(0,0)"/>
<path d="" fill="#00FFFF" transform="translate(0,0)"/>
<path d="" fill="#00FFFF" transform="translate(0,0)"/>
<path d="" fill="#00FFFF" transform="translate(0,0)"/>
<path d="" fill="#00FFFF" transform="translate(0,0)"/>
<path d="" fill="#55AAAA" transform="translate(0,0)"/>
<path d="" fill="#00FFFF" transform="translate(0,0)"/>
<path d="" fill="#00FFFF" transform="translate(0,0)"/>
<path d="" fill="#00FFFF" transform="translate(0,0)"/>
<path d="" fill="#00FFFF" transform="translate(0,0)"/>
<path d="" fill="#00FFFF" transform="translate(0,0)"/>
<path d="" fill="#00FFFF" transform="translate(0,0)"/>
<path d="" fill="#55AAAA" transform="translate(0,0)"/>
<path d="" fill="#00FFFF" transform="translate(0,0)"/>
<path d="" fill="#00FFFF" transform="translate(0,0)"/>
<path d="" fill="#7F7FFF" transform="translate(0,0)"/>
<path d="" fill="#00FFFF" transform="translate(0,0)"/>
<path d="" fill="#00FFFF" transform="translate(0,0)"/>
<path d="" fill="#00FFFF" transform="translate(0,0)"/>
<path d="" fill="#00FFFF" transform="translate(0,0)"/>
<path d="" fill="#3399CC" transform="translate(0,0)"/>
<path d="" fill="#7F7FFF" transform="translate(0,0)"/>
<path d="" fill="#00FFFF" transform="translate(0,0)"/>
<path d="" fill="#7F7FFF" transform="translate(0,0)"/>
<path d="" fill="#7F7FFF" transform="translate(0,0)"/>
<path d="" fill="#00FFFF" transform="translate(0,0)"/>
<path d="" fill="#00FFFF" transform="translate(0,0)"/>
<path d="" fill="#7F7FFF" transform="translate(0,0)"/>
<path d="" fill="#00FFFF" transform="translate(0,0)"/>
<path d="" fill="#00FFFF" transform="translate(0,0)"/>
<path d="" fill="#00FFFF" transform="translate(0,0)"/>
<path d="" fill="#3F7FBF" transform="translate(0,0)"/>
<path d="" fill="#3399CC" transform="translate(0,0)"/>
<path d="" fill="#00FFFF" transform="translate(0,0)"/>
<path d="" fill="#00FFFF" transform="translate(0,0)"/>
<path d="" fill="#00FFFF" transform="translate(0,0)"/>
<path d="" fill="#00FFFF" transform="translate(0,0)"/>
<path d="" fill="#00FFFF" transform="translate(0,0)"/>
<path d="" fill="#00FFFF" transform="translate(0,0)"/>
<path d="" fill="#00FFFF" transform="translate(0,0)"/>
<path d="" fill="#007FFF" transform="translate(0,0)"/>
<path d="" fill="#7F7FFF" transform="translate(0,0)"/>
<path d="" fill="#00FFFF" transform="translate(0,0)"/>
<path d="" fill="#00FFFF" transform="translate(0,0)"/>
<path d="" fill="#00FFFF" transform="translate(0,0)"/>
<path d="" fill="#00FFFF" transform="translate(0,0)"/>
<path d="" fill="#55AAFF" transform="translate(0,0)"/>
<path d="" fill="#00FFFF" transform="translate(0,0)"/>
<path d="" fill="#55AAFF" transform="translate(0,0)"/>
<path d="" fill="#00FFFF" transform="translate(0,0)"/>
<path d="" fill="#55AAFF" transform="translate(0,0)"/>
<path d="" fill="#007FFF" transform="translate(0,0)"/>
<path d="" fill="#00FFFF" transform="translate(0,0)"/>
<path d="" fill="#3F7FBF" transform="translate(0,0)"/>
<path d="" fill="#00FFFF" transform="translate(0,0)"/>
<path d="" fill="#00FFFF" transform="translate(0,0)"/>
<path d="" fill="#00FFFF" transform="translate(0,0)"/>
<path d="" fill="#007FFF" transform="translate(0,0)"/>
<path d="" fill="#55AAFF" transform="translate(0,0)"/>
<path d="" fill="#00FFFF" transform="translate(0,0)"/>
<path d="" fill="#4891DA" transform="translate(0,0)"/>
<path d="" fill="#3F7FFF" transform="translate(0,0)"/>
<path d="" fill="#00FFFF" transform="translate(0,0)"/>
<path d="" fill="#00FFFF" transform="translate(0,0)"/>
<path d="" fill="#00FFFF" transform="translate(0,0)"/>
<path d="" fill="#007FFF" transform="translate(0,0)"/>
<path d="" fill="#00FFFF" transform="translate(0,0)"/>
<path d="" fill="#007FFF" transform="translate(0,0)"/>
<path d="" fill="#00FFFF" transform="translate(0,0)"/>
<path d="" fill="#7F7FFF" transform="translate(0,0)"/>
<path d="" fill="#3F7FBF" transform="translate(0,0)"/>
<path d="" fill="#00FFFF" transform="translate(0,0)"/>
<path d="" fill="#7F7FFF" transform="translate(0,0)"/>
<path d="" fill="#00FFFF" transform="translate(0,0)"/>
<path d="" fill="#00FFFF" transform="translate(0,0)"/>
<path d="" fill="#00FFFF" transform="translate(0,0)"/>
<path d="" fill="#00FFFF" transform="translate(0,0)"/>
<path d="" fill="#00FFFF" transform="translate(0,0)"/>
<path d="" fill="#00FFFF" transform="translate(0,0)"/>
<path d="" fill="#00FFFF" transform="translate(0,0)"/>
<path d="" fill="#00FFFF" transform="translate(0,0)"/>
<path d="" fill="#7F7FFF" transform="translate(0,0)"/>
<path d="" fill="#00FFFF" transform="translate(0,0)"/>
<path d="" fill="#3F7FBF" transform="translate(0,0)"/>
<path d="" fill="#007FFF" transform="translate(0,0)"/>
<path d="" fill="#00FFFF" transform="translate(0,0)"/>
<path d="" fill="#00FFFF" transform="translate(0,0)"/>
<path d="" fill="#007FFF" transform="translate(0,0)"/>
<path d="" fill="#00FFFF" transform="translate(0,0)"/>
<path d="" fill="#00FFFF" transform="translate(0,0)"/>
<path d="" fill="#7F7FFF" transform="translate(0,0)"/>
<path d="" fill="#00FFFF" transform="translate(0,0)"/>
<path d="" fill="#00FFFF" transform="translate(0,0)"/>
<path d="" fill="#00FFFF" transform="translate(0,0)"/>
<path d="" fill="#00FFFF" transform="translate(0,0)"/>
<path d="" fill="#007FFF" transform="translate(0,0)"/>
<path d="" fill="#00FFFF" transform="translate(0,0)"/>
<path d="" fill="#007FFF" transform="translate(0,0)"/>
<path d="" fill="#00FFFF" transform="translate(0,0)"/>
<path d="" fill="#007FFF" transform="translate(0,0)"/>
<path d="" fill="#00FFFF" transform="translate(0,0)"/>
<path d="" fill="#55AAFF" transform="translate(0,0)"/>
<path d="" fill="#55AAFF" transform="translate(0,0)"/>
<path d="" fill="#55AAAA" transform="translate(0,0)"/>
<path d="" fill="#00FFFF" transform="translate(0,0)"/>
<path d="" fill="#00FFFF" transform="translate(0,0)"/>
<path d="" fill="#00FFFF" transform="translate(0,0)"/>
<path d="" fill="#00FFFF" transform="translate(0,0)"/>
<path d="" fill="#007FFF" transform="translate(0,0)"/>
<path d="" fill="#00FFFF" transform="translate(0,0)"/>
<path d="" fill="#00FFFF" transform="translate(0,0)"/>
<path d="" fill="#00FFFF" transform="translate(0,0)"/>
<path d="" fill="#55AAFF" transform="translate(0,0)"/>
<path d="" fill="#00FFFF" transform="translate(0,0)"/>
<path d="" fill="#00FFFF" transform="translate(0,0)"/>
<path d="" fill="#55AAFF" transform="translate(0,0)"/>
<path d="" fill="#00FFFF" transform="translate(0,0)"/>
<path d="" fill="#7F7FFF" transform="translate(0,0)"/>
<path d="" fill="#00FFFF" transform="translate(0,0)"/>
<path d="" fill="#00FFFF" transform="translate(0,0)"/>
<path d="" fill="#00FFFF" transform="translate(0,0)"/>
<path d="" fill="#00FFFF" transform="translate(0,0)"/>
<path d="" fill="#00FFFF" transform="translate(0,0)"/>
<path d="" fill="#00FFFF" transform="translate(0,0)"/>
<path d="" fill="#00FFFF" transform="translate(0,0)"/>
<path d="" fill="#00FFFF" transform="translate(0,0)"/>
<path d="" fill="#007FFF" transform="translate(0,0)"/>
<path d="" fill="#7F7FFF" transform="translate(0,0)"/>
<path d="" fill="#00FFFF" transform="translate(0,0)"/>
<path d="" fill="#00FFFF" transform="translate(0,0)"/>
<path d="" fill="#00FFFF" transform="translate(0,0)"/>
<path d="" fill="#00FFFF" transform="translate(0,0)"/>
<path d="" fill="#00FFFF" transform="translate(0,0)"/>
<path d="" fill="#00FFFF" transform="translate(0,0)"/>
<path d="" fill="#00FFFF" transform="translate(0,0)"/>
<path d="" fill="#00FFFF" transform="translate(0,0)"/>
<path d="" fill="#3399CC" transform="translate(0,0)"/>
<path d="" fill="#00FFFF" transform="translate(0,0)"/>
<path d="" fill="#00FFFF" transform="translate(0,0)"/>
<path d="" fill="#7F7FFF" transform="translate(0,0)"/>
<path d="" fill="#00FFFF" transform="translate(0,0)"/>
<path d="" fill="#00FFFF" transform="translate(0,0)"/>
<path d="" fill="#00FFFF" transform="translate(0,0)"/>
<path d="" fill="#00FFFF" transform="translate(0,0)"/>
<path d="" fill="#00FFFF" transform="translate(0,0)"/>
<path d="" fill="#007FFF" transform="translate(0,0)"/>
<path d="" fill="#00FFFF" transform="translate(0,0)"/>
<path d="" fill="#00FFFF" transform="translate(0,0)"/>
<path d="" fill="#3F7FBF" transform="translate(0,0)"/>
<path d="" fill="#55AAFF" transform="translate(0,0)"/>
<path d="" fill="#00FFFF" transform="translate(0,0)"/>
<path d="" fill="#55AAFF" transform="translate(0,0)"/>
<path d="" fill="#00FFFF" transform="translate(0,0)"/>
<path d="" fill="#007FFF" transform="translate(0,0)"/>
<path d="" fill="#00FFFF" transform="translate(0,0)"/>
<path d="" fill="#00FFFF" transform="translate(0,0)"/>
<path d="" fill="#007FFF" transform="translate(0,0)"/>
<path d="" fill="#00FFFF" transform="translate(0,0)"/>
<path d="" fill="#00FFFF" transform="translate(0,0)"/>
<path d="" fill="#00FFFF" transform="translate(0,0)"/>
<path d="" fill="#55AAAA" transform="translate(0,0)"/>
<path d="" fill="#00FFFF" transform="translate(0,0)"/>
<path d="" fill="#00FFFF" transform="translate(0,0)"/>
<path d="" fill="#00FFFF" transform="translate(0,0)"/>
<path d="" fill="#00FFFF" transform="translate(0,0)"/>
<path d="" fill="#00FFFF" transform="translate(0,0)"/>
<path d="" fill="#7F7FFF" transform="translate(0,0)"/>
<path d="" fill="#00FFFF" transform="translate(0,0)"/>
<path d="" fill="#4891DA" transform="translate(0,0)"/>
<path d="" fill="#3399CC" transform="translate(0,0)"/>
<path d="" fill="#55AAFF" transform="translate(0,0)"/>
<path d="" fill="#007FFF" transform="translate(0,0)"/>
<path d="" fill="#007FFF" transform="translate(0,0)"/>
<path d="" fill="#00FFFF" transform="translate(0,0)"/>
<path d="" fill="#3F7FBF" transform="translate(0,0)"/>
<path d="" fill="#00FFFF" transform="translate(0,0)"/>
<path d="" fill="#00FFFF" transform="translate(0,0)"/>
<path d="" fill="#00FFFF" transform="translate(0,0)"/>
<path d="" fill="#00FFFF" transform="translate(0,0)"/>
<path d="" fill="#7F7FFF" transform="translate(0,0)"/>
<path d="" fill="#00FFFF" transform="translate(0,0)"/>
<path d="" fill="#00FFFF" transform="translate(0,0)"/>
<path d="" fill="#00FFFF" transform="translate(0,0)"/>
<path d="" fill="#00FFFF" transform="translate(0,0)"/>
<path d="" fill="#55AAFF" transform="translate(0,0)"/>
<path d="" fill="#00FFFF" transform="translate(0,0)"/>
<path d="" fill="#00FFFF" transform="translate(0,0)"/>
<path d="" fill="#3F7FBF" transform="translate(0,0)"/>
<path d="" fill="#00FFFF" transform="translate(0,0)"/>
<path d="" fill="#00FFFF" transform="translate(0,0)"/>
<path d="" fill="#00FFFF" transform="translate(0,0)"/>
<path d="" fill="#7F7FFF" transform="translate(0,0)"/>
<path d="" fill="#7F7FFF" transform="translate(0,0)"/>
<path d="" fill="#00FFFF" transform="translate(0,0)"/>
<path d="" fill="#55AAFF" transform="translate(0,0)"/>
<path d="" fill="#7F7FFF" transform="translate(0,0)"/>
<path d="" fill="#7F7FFF" transform="translate(0,0)"/>
<path d="" fill="#55AAFF" transform="translate(0,0)"/>
<path d="" fill="#00FFFF" transform="translate(0,0)"/>
<path d="" fill="#00FFFF" transform="translate(0,0)"/>
<path d="" fill="#00FFFF" transform="translate(0,0)"/>
<path d="" fill="#00FFFF" transform="translate(0,0)"/>
<path d="" fill="#7F7FFF" transform="translate(0,0)"/>
<path d="" fill="#00FFFF" transform="translate(0,0)"/>
<path d="" fill="#00FFFF" transform="translate(0,0)"/>
<path d="" fill="#007FFF" transform="translate(0,0)"/>
<path d="" fill="#00FFFF" transform="translate(0,0)"/>
<path d="" fill="#00FFFF" transform="translate(0,0)"/>
<path d="" fill="#00FFFF" transform="translate(0,0)"/>
<path d="" fill="#00FFFF" transform="translate(0,0)"/>
<path d="" fill="#7F7FFF" transform="translate(0,0)"/>
<path d="" fill="#00FFFF" transform="translate(0,0)"/>
<path d="" fill="#00FFFF" transform="translate(0,0)"/>
<path d="" fill="#00FFFF" transform="translate(0,0)"/>
<path d="" fill="#00FFFF" transform="translate(0,0)"/>
<path d="" fill="#00FFFF" transform="translate(0,0)"/>
<path d="" fill="#00FFFF" transform="translate(0,0)"/>
<path d="" fill="#00FFFF" transform="translate(0,0)"/>
<path d="" fill="#00FFFF" transform="translate(0,0)"/>
<path d="" fill="#7F7FFF" transform="translate(0,0)"/>
<path d="" fill="#00FFFF" transform="translate(0,0)"/>
<path d="" fill="#7F7FFF" transform="translate(0,0)"/>
<path d="" fill="#3F7FFF" transform="translate(0,0)"/>
<path d="" fill="#00FFFF" transform="translate(0,0)"/>
<path d="" fill="#00FFFF" transform="translate(0,0)"/>
<path d="" fill="#00FFFF" transform="translate(0,0)"/>
<path d="" fill="#00FFFF" transform="translate(0,0)"/>
<path d="" fill="#00FFFF" transform="translate(0,0)"/>
<path d="" fill="#7F7FFF" transform="translate(0,0)"/>
<path d="" fill="#00FFFF" transform="translate(0,0)"/>
<path d="" fill="#007FFF" transform="translate(0,0)"/>
<path d="" fill="#55AAFF" transform="translate(0,0)"/>
<path d="" fill="#00FFFF" transform="translate(0,0)"/>
<path d="" fill="#55AAFF" transform="translate(0,0)"/>
<path d="" fill="#00FFFF" transform="translate(0,0)"/>
<path d="" fill="#55AAFF" transform="translate(0,0)"/>
<path d="" fill="#00FFFF" transform="translate(0,0)"/>
<path d="" fill="#00FFFF" transform="translate(0,0)"/>
<path d="" fill="#7F7FFF" transform="translate(0,0)"/>
<path d="" fill="#3399CC" transform="translate(0,0)"/>
<path d="" fill="#007FFF" transform="translate(0,0)"/>
<path d="" fill="#00FFFF" transform="translate(0,0)"/>
<path d="" fill="#00FFFF" transform="translate(0,0)"/>
<path d="" fill="#00FFFF" transform="translate(0,0)"/>
<path d="" fill="#00FFFF" transform="translate(0,0)"/>
<path d="" fill="#00FFFF" transform="translate(0,0)"/>
<path d="" fill="#7F7FFF" transform="translate(0,0)"/>
<path d="" fill="#00FFFF" transform="translate(0,0)"/>
<path d="" fill="#3F7FBF" transform="translate(0,0)"/>
<path d="" fill="#00FFFF" transform="translate(0,0)"/>
<path d="" fill="#00FFFF" transform="translate(0,0)"/>
<path d="" fill="#7F7FFF" transform="translate(0,0)"/>
<path d="" fill="#00FFFF" transform="translate(0,0)"/>
<path d="" fill="#7F7FFF" transform="translate(0,0)"/>
<path d="" fill="#55AAFF" transform="translate(0,0)"/>
<path d="" fill="#00FFFF" transform="translate(0,0)"/>
<path d="" fill="#00FFFF" transform="translate(0,0)"/>
<path d="" fill="#00FFFF" transform="translate(0,0)"/>
<path d="" fill="#007FFF" transform="translate(0,0)"/>
<path d="" fill="#00FFFF" transform="translate(0,0)"/>
<path d="" fill="#3F7FBF" transform="translate(0,0)"/>
<path d="" fill="#7F7FFF" transform="translate(0,0)"/>
<path d="" fill="#00FFFF" transform="translate(0,0)"/>
<path d="" fill="#7F7FFF" transform="translate(0,0)"/>
<path d="" fill="#00FFFF" transform="translate(0,0)"/>
<path d="" fill="#00FFFF" transform="translate(0,0)"/>
<path d="" fill="#00FFFF" transform="translate(0,0)"/>
<path d="" fill="#00FFFF" transform="translate(0,0)"/>
<path d="" fill="#00FFFF" transform="translate(0,0)"/>
<path d="" fill="#00FFFF" transform="translate(0,0)"/>
<path d="" fill="#00FFFF" transform="translate(0,0)"/>
<path d="" fill="#00FFFF" transform="translate(0,0)"/>
<path d="" fill="#00FFFF" transform="translate(0,0)"/>
<path d="" fill="#55AAFF" transform="translate(0,0)"/>
<path d="" fill="#3399CC" transform="translate(0,0)"/>
<path d="" fill="#00FFFF" transform="translate(0,0)"/>
<path d="" fill="#00FFFF" transform="translate(0,0)"/>
<path d="" fill="#00FFFF" transform="translate(0,0)"/>
<path d="" fill="#7F7FFF" transform="translate(0,0)"/>
<path d="" fill="#00FFFF" transform="translate(0,0)"/>
<path d="" fill="#7F7FFF" transform="translate(0,0)"/>
<path d="" fill="#00FFFF" transform="translate(0,0)"/>
<path d="" fill="#00FFFF" transform="translate(0,0)"/>
<path d="" fill="#00FFFF" transform="translate(0,0)"/>
<path d="" fill="#007FFF" transform="translate(0,0)"/>
<path d="" fill="#7F7FFF" transform="translate(0,0)"/>
<path d="" fill="#00FFFF" transform="translate(0,0)"/>
<path d="" fill="#55AAAA" transform="translate(0,0)"/>
<path d="" fill="#55AAFF" transform="translate(0,0)"/>
<path d="" fill="#00FFFF" transform="translate(0,0)"/>
<path d="" fill="#00FFFF" transform="translate(0,0)"/>
<path d="" fill="#00FFFF" transform="translate(0,0)"/>
<path d="" fill="#00FFFF" transform="translate(0,0)"/>
<path d="" fill="#55AAAA" transform="translate(0,0)"/>
<path d="" fill="#00FFFF" transform="translate(0,0)"/>
<path d="" fill="#00FFFF" transform="translate(0,0)"/>
<path d="" fill="#00FFFF" transform="translate(0,0)"/>
<path d="" fill="#00FFFF" transform="translate(0,0)"/>
<path d="" fill="#00FFFF" transform="translate(0,0)"/>
<path d="" fill="#55AAFF" transform="translate(0,0)"/>
<path d="" fill="#3F7FBF" transform="translate(0,0)"/>
<path d="" fill="#00FFFF" transform="translate(0,0)"/>
<path d="" fill="#55AAAA" transform="translate(0,0)"/>
</svg>
